# xmcd
#
# Track frame offsets: 
#        150
#        13820
#        39500
#        62205
#        89610
#        107647
#        129795
#        172595
#
# Disc length: 2537 seconds
#
# Revision: 3
# Processed by: cddbd v1.5.2PL0 Copyright (c) Steve Scherf et al.
# Submitted via: ExactAudioCopyFreeDBPlugin 1.0
#
DISCID=5c09e708
DTITLE=Etta James - Live From San Fransciso
DYEAR=1994
DGENRE=Blues
TTITLE0=I Just Want To Make Love To You
TTITLE1=Take It To the Limit
TTITLE2=Baby What You Want Me To Do
TTITLE3=Sugar On the Floor
TTITLE4=Tell Mama
TTITLE5=I'd Rather Go Blind
TTITLE6=Otis Redding Medley--Hard To Handle--Just One More Day--Can't 
TTITLE6=Turn You Loose
TTITLE7=Born Blue
EXTD=
EXTT0=
EXTT1=
EXTT2=
EXTT3=
EXTT4=
EXTT5=
EXTT6=
EXTT7=
PLAYORDER=
